<svg xmlns="http://www.w3.org/2000/svg" width="70" height="70" viewBox="15 20 90 90" role="img" aria-labelledby="logoTitle">
  <title id="logoTitle">FC logo</title>
  <defs>
    <linearGradient id="g1" x1="0" y1="0" x2="1" y2="1">
      <stop offset="0" stop-color="#60A5FA" />
      <stop offset="1" stop-color="#8B5CF6" />
    </linearGradient>
  </defs>
  <path
    d="M35 35
           q-10 0 -10 10
           v10
           q0 10 -8 10
           q8 0 8 10
           v10
           q0 10 10 10"
    fill="none"
    stroke="url(#g1)"
    stroke-linecap="round"
    stroke-width="6"
  />
  <path
    d="M85 35
           q10 0 10 10
           v10
           q0 10 8 10
           q-8 0 -8 10
           v10
           q0 10 -10 10"
    fill="none"
    stroke="url(#g1)"
    stroke-linecap="round"
    stroke-width="6"
  />
  <path
    d="M45 85 q15 12 30 0"
    fill="none"
    stroke="url(#g1)"
    stroke-linecap="round"
    stroke-width="5"
  />
  <rect x="43" y="44" width="8" height="28" rx="2" fill="url(#g1)" />
  <rect x="43" y="44" width="20" height="7" rx="2" fill="url(#g1)" />
  <rect x="43" y="56" width="15" height="7" rx="2" fill="url(#g1)" />
  <path
    d="M92 44c-12.7 0-23 10.3-23 23s10.3 23 23 23c6 0 11.5-2.2 15.7-6.3l-5.1-5.1c-2.7 2.7-6.1 4.2-10.6 4.2-8.6 0-15.6-7-15.6-15.7s7-15.7 15.6-15.7c4.4 0 7.9 1.4 10.6 4.2l5.1-5.1C103.5 46.2 98 44 92 44Z"
    fill="url(#g1)"
  />
</svg>
