<svg xmlns="http://www.w3.org/2000/svg" xmlns:xlink="http://www.w3.org/1999/xlink" viewBox="0 0 24 24">
  <symbol id="icon-github" viewBox="0 0 24 24">
    <path
      fill="currentColor"
      d="M12 2a10 10 0 0 0-3.16 19.48c.5.09.68-.22.68-.48v-1.69c-2.77.6-3.36-1.18-3.36-1.18a2.64 2.64 0 0 0-1.11-1.46c-.91-.62.07-.61.07-.61a2.09 2.09 0 0 1 1.52 1 2.12 2.12 0 0 0 2.89.83 2.12 2.12 0 0 1 .63-1.33c-2.22-.25-4.55-1.11-4.55-4.94A3.87 3.87 0 0 1 6.8 9.42 3.6 3.6 0 0 1 6.9 6.73s.84-.27 2.75 1a9.48 9.48 0 0 1 5 0c1.91-1.29 2.75-1 2.75-1a3.6 3.6 0 0 1 .1 2.69 3.87 3.87 0 0 1 1 2.68c0 3.84-2.33 4.68-4.56 4.93a2.37 2.37 0 0 1 .68 1.83v2.71c0 .26.18.58.69.48A10 10 0 0 0 12 2"
    />
  </symbol>
</svg>
