<svg xmlns="http://www.w3.org/2000/svg" xmlns:xlink="http://www.w3.org/1999/xlink" viewBox="0 0 24 24">
  <symbol id="icon-globe" viewBox="0 0 24 24">
    <path
      fill="currentColor"
      d="M12 2a10 10 0 1 0 10 10A10 10 0 0 0 12 2m6.92 6h-3.63a12.94 12.94 0 0 0-1.16-4.12A8 8 0 0 1 18.92 8M12 4.07a10.87 10.87 0 0 1 1.59 3.93h-3.18A10.87 10.87 0 0 1 12 4.07M4.26 14A7.93 7.93 0 0 1 4 12a7.93 7.93 0 0 1 .26-2h3.89a13.7 13.7 0 0 0-.15 2 13.7 13.7 0 0 0 .15 2Zm.82 2h3.63a12.94 12.94 0 0 0 1.16 4.12A8 8 0 0 1 5.08 16M8.71 10h6.58a11.83 11.83 0 0 1 .14 2 11.83 11.83 0 0 1-.14 2H8.71a11.83 11.83 0 0 1-.14-2 11.83 11.83 0 0 1 .14-2m4.7 10a10.87 10.87 0 0 1-1.59-3.93h3.18A10.87 10.87 0 0 1 13.41 20M16 20.05a12.94 12.94 0 0 0 1.16-4.12h3.63A8 8 0 0 1 16 20.05"
    />
  </symbol>
</svg>
